<mxfile host="app.diagrams.net" modified="2023-02-07T02:10:15.998Z" agent="5.0 (Windows NT 10.0; Win64; x64) AppleWebKit/537.36 (KHTML, like Gecko) Chrome/109.0.0.0 Safari/537.36" etag="_dBime9aQN4rhbpRk-OH" version="20.8.17" type="github">
  <diagram name="Page-1" id="LdSUicTR7xrjISLOBHw9">
    <mxGraphModel dx="2537" dy="2067" grid="1" gridSize="10" guides="1" tooltips="1" connect="1" arrows="1" fold="1" page="1" pageScale="1" pageWidth="850" pageHeight="1100" math="0" shadow="0">
      <root>
        <mxCell id="0" />
        <mxCell id="1" parent="0" />
        <mxCell id="H5pHViM8uD1d_lj_StED-32" style="edgeStyle=orthogonalEdgeStyle;rounded=0;orthogonalLoop=1;jettySize=auto;html=1;exitX=0.25;exitY=1;exitDx=0;exitDy=0;entryX=0.286;entryY=0.055;entryDx=0;entryDy=0;entryPerimeter=0;fontSize=21;" edge="1" parent="1" source="H5pHViM8uD1d_lj_StED-2" target="H5pHViM8uD1d_lj_StED-5">
          <mxGeometry relative="1" as="geometry" />
        </mxCell>
        <mxCell id="H5pHViM8uD1d_lj_StED-2" value="&lt;font style=&quot;font-size: 21px;&quot;&gt;Partner&lt;/font&gt;" style="rounded=1;whiteSpace=wrap;html=1;" vertex="1" parent="1">
          <mxGeometry x="360" y="-70" width="120" height="60" as="geometry" />
        </mxCell>
        <mxCell id="H5pHViM8uD1d_lj_StED-35" style="edgeStyle=orthogonalEdgeStyle;rounded=0;orthogonalLoop=1;jettySize=auto;html=1;exitX=0.25;exitY=0;exitDx=0;exitDy=0;entryX=1;entryY=0;entryDx=0;entryDy=0;fontSize=21;" edge="1" parent="1" source="H5pHViM8uD1d_lj_StED-4" target="H5pHViM8uD1d_lj_StED-5">
          <mxGeometry relative="1" as="geometry" />
        </mxCell>
        <mxCell id="H5pHViM8uD1d_lj_StED-39" style="edgeStyle=orthogonalEdgeStyle;rounded=0;orthogonalLoop=1;jettySize=auto;html=1;exitX=0;exitY=0.25;exitDx=0;exitDy=0;entryX=1;entryY=0.5;entryDx=0;entryDy=0;fontSize=21;" edge="1" parent="1" source="H5pHViM8uD1d_lj_StED-4" target="H5pHViM8uD1d_lj_StED-5">
          <mxGeometry relative="1" as="geometry" />
        </mxCell>
        <mxCell id="H5pHViM8uD1d_lj_StED-4" value="User" style="rounded=1;whiteSpace=wrap;html=1;fontSize=21;" vertex="1" parent="1">
          <mxGeometry x="850" y="220" width="120" height="60" as="geometry" />
        </mxCell>
        <mxCell id="H5pHViM8uD1d_lj_StED-12" style="edgeStyle=orthogonalEdgeStyle;rounded=0;orthogonalLoop=1;jettySize=auto;html=1;exitX=0;exitY=1;exitDx=0;exitDy=0;entryX=0.75;entryY=1;entryDx=0;entryDy=0;fontSize=21;" edge="1" parent="1" source="H5pHViM8uD1d_lj_StED-5" target="H5pHViM8uD1d_lj_StED-6">
          <mxGeometry relative="1" as="geometry">
            <Array as="points">
              <mxPoint x="-50" y="290" />
            </Array>
          </mxGeometry>
        </mxCell>
        <mxCell id="H5pHViM8uD1d_lj_StED-17" style="edgeStyle=orthogonalEdgeStyle;rounded=0;orthogonalLoop=1;jettySize=auto;html=1;exitX=0;exitY=1;exitDx=0;exitDy=0;entryX=0.084;entryY=-0.009;entryDx=0;entryDy=0;entryPerimeter=0;fontSize=21;" edge="1" parent="1" source="H5pHViM8uD1d_lj_StED-5" target="H5pHViM8uD1d_lj_StED-7">
          <mxGeometry relative="1" as="geometry">
            <Array as="points">
              <mxPoint x="370" y="360" />
              <mxPoint x="370" y="360" />
            </Array>
          </mxGeometry>
        </mxCell>
        <mxCell id="H5pHViM8uD1d_lj_StED-30" style="edgeStyle=orthogonalEdgeStyle;rounded=0;orthogonalLoop=1;jettySize=auto;html=1;exitX=1;exitY=0;exitDx=0;exitDy=0;entryX=0.907;entryY=0.991;entryDx=0;entryDy=0;entryPerimeter=0;fontSize=21;" edge="1" parent="1" source="H5pHViM8uD1d_lj_StED-5" target="H5pHViM8uD1d_lj_StED-2">
          <mxGeometry relative="1" as="geometry" />
        </mxCell>
        <mxCell id="H5pHViM8uD1d_lj_StED-41" style="edgeStyle=orthogonalEdgeStyle;rounded=0;orthogonalLoop=1;jettySize=auto;html=1;exitX=1;exitY=1;exitDx=0;exitDy=0;entryX=0.118;entryY=1.021;entryDx=0;entryDy=0;entryPerimeter=0;fontSize=21;" edge="1" parent="1" source="H5pHViM8uD1d_lj_StED-5" target="H5pHViM8uD1d_lj_StED-4">
          <mxGeometry relative="1" as="geometry" />
        </mxCell>
        <mxCell id="H5pHViM8uD1d_lj_StED-5" value="Travel app" style="ellipse;whiteSpace=wrap;html=1;aspect=fixed;fontSize=21;" vertex="1" parent="1">
          <mxGeometry x="350" y="170" width="140" height="140" as="geometry" />
        </mxCell>
        <mxCell id="H5pHViM8uD1d_lj_StED-9" style="edgeStyle=orthogonalEdgeStyle;rounded=0;orthogonalLoop=1;jettySize=auto;html=1;exitX=0.92;exitY=0;exitDx=0;exitDy=0;fontSize=21;entryX=0;entryY=0;entryDx=0;entryDy=0;exitPerimeter=0;" edge="1" parent="1" source="H5pHViM8uD1d_lj_StED-6" target="H5pHViM8uD1d_lj_StED-5">
          <mxGeometry relative="1" as="geometry" />
        </mxCell>
        <mxCell id="H5pHViM8uD1d_lj_StED-28" style="edgeStyle=orthogonalEdgeStyle;rounded=0;orthogonalLoop=1;jettySize=auto;html=1;exitX=1;exitY=0.5;exitDx=0;exitDy=0;entryX=0;entryY=0.5;entryDx=0;entryDy=0;fontSize=21;" edge="1" parent="1" source="H5pHViM8uD1d_lj_StED-6" target="H5pHViM8uD1d_lj_StED-5">
          <mxGeometry relative="1" as="geometry" />
        </mxCell>
        <mxCell id="H5pHViM8uD1d_lj_StED-6" value="Guest" style="rounded=1;whiteSpace=wrap;html=1;fontSize=21;" vertex="1" parent="1">
          <mxGeometry x="-140" y="210" width="120" height="60" as="geometry" />
        </mxCell>
        <mxCell id="H5pHViM8uD1d_lj_StED-21" style="edgeStyle=orthogonalEdgeStyle;rounded=0;orthogonalLoop=1;jettySize=auto;html=1;exitX=0.75;exitY=0;exitDx=0;exitDy=0;entryX=0.715;entryY=0.954;entryDx=0;entryDy=0;entryPerimeter=0;fontSize=21;" edge="1" parent="1" source="H5pHViM8uD1d_lj_StED-7" target="H5pHViM8uD1d_lj_StED-5">
          <mxGeometry relative="1" as="geometry" />
        </mxCell>
        <mxCell id="H5pHViM8uD1d_lj_StED-7" value="Admin" style="rounded=1;whiteSpace=wrap;html=1;fontSize=21;arcSize=30;" vertex="1" parent="1">
          <mxGeometry x="360" y="570" width="120" height="60" as="geometry" />
        </mxCell>
        <mxCell id="H5pHViM8uD1d_lj_StED-14" value="Truy cập, xem thông tin" style="text;html=1;strokeColor=none;fillColor=none;align=center;verticalAlign=middle;whiteSpace=wrap;rounded=0;fontSize=21;" vertex="1" parent="1">
          <mxGeometry x="40" y="150" width="230" height="30" as="geometry" />
        </mxCell>
        <mxCell id="H5pHViM8uD1d_lj_StED-15" value="Hiển thị đề xuất, đưa ra đánh giá" style="text;html=1;strokeColor=none;fillColor=none;align=center;verticalAlign=middle;whiteSpace=wrap;rounded=0;fontSize=21;" vertex="1" parent="1">
          <mxGeometry y="290" width="320" height="30" as="geometry" />
        </mxCell>
        <mxCell id="H5pHViM8uD1d_lj_StED-18" value="Thông tin của khách hàng, các bên hợp tác" style="text;html=1;strokeColor=none;fillColor=none;align=center;verticalAlign=middle;whiteSpace=wrap;rounded=0;fontSize=21;" vertex="1" parent="1">
          <mxGeometry x="310" y="430" width="60" height="30" as="geometry" />
        </mxCell>
        <mxCell id="H5pHViM8uD1d_lj_StED-22" value="Thêm&lt;br&gt;sửa xóa" style="text;html=1;strokeColor=none;fillColor=none;align=center;verticalAlign=middle;whiteSpace=wrap;rounded=0;fontSize=21;" vertex="1" parent="1">
          <mxGeometry x="450" y="410" width="60" height="30" as="geometry" />
        </mxCell>
        <mxCell id="H5pHViM8uD1d_lj_StED-29" value="Tìm kiếm" style="text;html=1;strokeColor=none;fillColor=none;align=center;verticalAlign=middle;whiteSpace=wrap;rounded=0;fontSize=21;" vertex="1" parent="1">
          <mxGeometry x="60" y="210" width="250" height="30" as="geometry" />
        </mxCell>
        <mxCell id="H5pHViM8uD1d_lj_StED-31" value="Quảng cáo" style="text;html=1;strokeColor=none;fillColor=none;align=center;verticalAlign=middle;whiteSpace=wrap;rounded=0;fontSize=21;" vertex="1" parent="1">
          <mxGeometry x="480" y="70" width="60" height="30" as="geometry" />
        </mxCell>
        <mxCell id="H5pHViM8uD1d_lj_StED-33" value="Thông tin(địa điẻm, giá,...)" style="text;html=1;strokeColor=none;fillColor=none;align=center;verticalAlign=middle;whiteSpace=wrap;rounded=0;fontSize=21;" vertex="1" parent="1">
          <mxGeometry x="320" y="60" width="60" height="30" as="geometry" />
        </mxCell>
        <mxCell id="H5pHViM8uD1d_lj_StED-38" value="Truy cập, tìm kiếm" style="text;html=1;strokeColor=none;fillColor=none;align=center;verticalAlign=middle;whiteSpace=wrap;rounded=0;fontSize=21;" vertex="1" parent="1">
          <mxGeometry x="560" y="150" width="290" height="30" as="geometry" />
        </mxCell>
        <mxCell id="H5pHViM8uD1d_lj_StED-40" value="Đánh giá" style="text;html=1;strokeColor=none;fillColor=none;align=center;verticalAlign=middle;whiteSpace=wrap;rounded=0;fontSize=21;" vertex="1" parent="1">
          <mxGeometry x="540" y="210" width="130" height="30" as="geometry" />
        </mxCell>
        <mxCell id="H5pHViM8uD1d_lj_StED-42" value="&#xa;&lt;span style=&quot;color: rgb(0, 0, 0); font-family: Helvetica; font-size: 21px; font-style: normal; font-variant-ligatures: normal; font-variant-caps: normal; font-weight: 400; letter-spacing: normal; orphans: 2; text-align: center; text-indent: 0px; text-transform: none; widows: 2; word-spacing: 0px; -webkit-text-stroke-width: 0px; background-color: rgb(251, 251, 251); text-decoration-thickness: initial; text-decoration-style: initial; text-decoration-color: initial; float: none; display: inline !important;&quot;&gt;Hiển thị đề xuất, đưa ra đánh giá&lt;/span&gt;&#xa;&#xa;" style="text;html=1;strokeColor=none;fillColor=none;align=center;verticalAlign=middle;whiteSpace=wrap;rounded=0;fontSize=21;" vertex="1" parent="1">
          <mxGeometry x="510" y="300" width="320" height="30" as="geometry" />
        </mxCell>
      </root>
    </mxGraphModel>
  </diagram>
</mxfile>
